<svg xmlns="http://www.w3.org/2000/svg" viewBox="0 0 790.28 262.45"><defs><style>.cls-1,.cls-2{fill:#aa182c;}.cls-2{fill-rule:evenodd;}</style></defs><title>apollo-logo-red</title><g id="Layer_2" data-name="Layer 2"><g id="Layer_1-2" data-name="Layer 1"><path class="cls-1" d="M377.84,130.73c0,40.47-13.07,66.11-56.31,66.11S265,171.7,265,130.73c0-40.22,14.08-65.11,56.56-65.11,41.73,0,56.31,25.14,56.31,65.11m-29.16,0c0-26.4-6.79-39-27.15-39-21.37,0-27.4,12.07-27.4,39,0,27.14,5,40.22,27.4,40.22s27.15-13.58,27.15-40.22"/><path class="cls-1" d="M483.38,7.38,514.06,0V154.06q0,24.3,14.49,29-7.12,13.5-24.31,13.5-20.87,0-20.86-29Z"/><path class="cls-1" d="M409.24,7.38,439.93,0V154.06q0,24.3,14.48,29-7.12,13.5-24.3,13.5-20.88,0-20.87-29Z"/><path class="cls-1" d="M658.59,130.73c0,40.47-13.08,66.11-56.31,66.11s-56.56-25.14-56.56-66.11c0-40.22,14.08-65.11,56.56-65.11,41.73,0,56.31,25.14,56.31,65.11m-29.16,0c0-26.4-6.79-39-27.15-39-21.37,0-27.4,12.07-27.4,39,0,27.14,5,40.22,27.4,40.22s27.15-13.58,27.15-40.22"/><path class="cls-1" d="M196.6,65.62c-14.33,0-31.42,9.81-31.42,9.81V65.62L136.52,72.5v190l28.66-6.88v-61a151,151,0,0,0,23.38,2.26c38.46,0,56.3-14.58,56.3-66.87,0-47-15.58-64.35-48.26-64.35M186.55,171a169.2,169.2,0,0,1-21.37-1.76V98.55S180.26,92,191.32,92c15.08,0,24.38,9.55,24.38,38,0,29.92-6.53,41-29.15,41"/><path class="cls-1" d="M78.68,181.86q-4,6.62-14,10.81a53.44,53.44,0,0,1-20.85,4.19q-20.44,0-32.13-10.22T0,157.64q0-22,16.48-34.38t46.84-12.4a51.81,51.81,0,0,1,12.29,1.77q0-22.32-28.24-22.33-16.65,0-27.88,5.56L13.11,72.94q15.24-7.34,36.27-7.33,29,0,42.41,13.17t13.47,49.92v27.05q0,25.27,10.16,31.78-3.66,6.38-8.15,7.85A32.74,32.74,0,0,1,97,196.86a16.45,16.45,0,0,1-11.46-4.72A24.08,24.08,0,0,1,78.68,181.86ZM75.84,135a63.2,63.2,0,0,0-11.34-1.54q-35,0-35,22.92,0,17,19.73,17,26.58,0,26.58-26.58Z"/><path class="cls-2" d="M721.85,70.51q0,10.6,12.3,10.61,16.56,0,16.57-16.57V57.19a39.12,39.12,0,0,0-7.07-1Q721.86,56.23,721.85,70.51Z"/><path class="cls-2" d="M778.35,0H670.52a11.93,11.93,0,0,0-11.93,11.94V49.1a74.47,74.47,0,0,1,13.76,13.45C685.56,79.38,692,101.68,692,130.73c0,.16,0,.32,0,.48l23.9-21.47h62.47A11.93,11.93,0,0,0,790.28,97.8V11.94A11.93,11.93,0,0,0,778.35,0ZM770.3,94.85a20.55,20.55,0,0,1-6.4.92,10.24,10.24,0,0,1-7.15-2.94,15.1,15.1,0,0,1-4.27-6.41q-2.51,4.13-8.72,6.74a33.28,33.28,0,0,1-13,2.61q-12.74,0-20-6.37t-7.29-18.07q0-13.69,10.27-21.43t29.19-7.73a32.58,32.58,0,0,1,7.66,1.1q0-13.92-17.6-13.91-10.38,0-17.38,3.46l-4-14.29Q721.12,14,734.23,14q18,0,26.43,8.21t8.39,31.11V70.15q0,15.75,6.33,19.8C773.86,92.6,772.17,94.24,770.3,94.85Z"/></g></g></svg>