<?xml version="1.0" encoding="utf-8"?>
<!-- Generator: Adobe Illustrator 18.1.1, SVG Export Plug-In . SVG Version: 6.00 Build 0)  -->
<svg version="1.1" id="Isolation_Mode" xmlns="http://www.w3.org/2000/svg" xmlns:xlink="http://www.w3.org/1999/xlink" x="0px"
	 y="0px" viewBox="0 0 500 137" enable-background="new 0 0 500 137" xml:space="preserve">
<g>
	<path fill="#0372dd" d="M50.4,0H2.2C1,0,0,1,0,2.3c0,1.3,1,2.3,2.2,2.3c1.3,0,2.3-1,2.3-2.3c0,1.3-1,2.3-2.3,2.3C1,4.6,0,3.5,0,2.3
		v132.4c0,1.3,1,2.3,2.2,2.3h48.1c74.2,0,76.1-58,76.1-68.5C126.5,58,124.6,0,50.4,0z M40.4,123h-7.2V14h7.2
		c16.2,0,53.3,11.6,53.3,54.5C93.7,111.4,56.6,123,40.4,123z"/>
	<path fill="#FCC92E" d="M231.1,14c1.2,0,2.2-1,2.2-2.3V2.3c0-1.3-1-2.3-2.2-2.3h-87.8C142,0,141,1,141,2.3v132.4
		c0,1.3,1,2.3,2.3,2.3h87.8c1.2,0,2.2-1,2.2-2.3v-9.5c0-1.2-1-2.3-2.2-2.3h-56.8V75.5h56.8c1.2,0,2.2-1,2.2-2.2V59.9
		c0-1.2-1-2.3-2.2-2.3h-56.8V14H231.1z"/>
	<g>
		<path fill="#0372dd" d="M497.7,0H469c-1.2,0-2.3,1-2.3,2.3v132.5c0,1.2,1.1,2.3,2.3,2.3h28.7c1.2,0,2.3-1,2.3-2.3V2.3
			C500,1,499,0,497.7,0z"/>
		<path fill="#0372dd" d="M329.4,123h-39V2.3c0-1.3-1-2.3-2.3-2.3h-28.7c-1.3,0-2.3,1-2.3,2.3v132.4c0,1.3,1,2.3,2.3,2.3h69.9
			c1.3,0,2.3-1,2.3-2.3v-9.5C331.7,124,330.7,123,329.4,123z"/>
		<path fill="#0372dd" d="M442.7,0h-87.8c-1.2,0-2.2,1-2.2,2.3v132.5c0,1.2,1,2.3,2.2,2.3h28.7c1.3,0,2.3-1,2.3-2.3l0-59.9v0.6h56.8
			c1.2,0,2.3-1,2.3-2.2V59.9c0-1.2-1-2.3-2.3-2.3h-56.8h0l0-43.7h56.8c1.2,0,2.3-1,2.3-2.3V2.3C445,1,443.9,0,442.7,0z"/>
	</g>
</g>
</svg>
