<svg xmlns="http://www.w3.org/2000/svg" viewBox="42.84 257.04 848.79 199.92" id="jauns"><g transform="translate(9 9)"><path class="bsfill" d="M668 336.4l-13-3c-2-.2-3.3-.7-4-1.3-.8-.6-1.2-1.6-1.2-3 0-3 2-4.4 6.2-4.4 8.8 0 17.7 1.2 26.8 3.7l6.4-22.2c-8-3-18-4.4-30-4.4-14 0-24.4 2.6-31.3 8-7 5.3-10.3 12-10.3 20 0 8.4 2 14.6 6 18.8 4 4 10 7.2 17.8 9l12.4 3.2c3 .7 4.6 2.4 4.6 5 0 3.3-2.3 5-7 5-9 0-19.3-2-30.6-5.3l-6 23c12 3.6 23.5 5.3 34.8 5.3 15 0 25.8-3 32.4-8.8 6.6-6 10-13 10-21 0-7.2-1.8-13-5.2-17.5-3.4-4.5-9.7-7.8-19-10m47.6 20.7c-5 0-9.2 1.6-12.7 4.7-3.6 3-5.4 7.7-5.4 13.8s1.8 10.6 5.4 13.5c3.6 2.8 7.6 4.3 12 4.3 5.6 0 10-1.5 13.3-4.5 3.3-3 5-7.5 5-13.3 0-6.6-1.8-11.3-5.2-14.2-3.3-3-7.5-4.3-12.4-4.3m27.6 34.2h33v-129l-33 4"></path><g transform="translate(156 11)"><path mask="url(#bsb)" class="bsfill" d="M692 293c-7.2 23.6-12.4 41.6-15.6 54-6-20-11.6-38-17-54h-36l33.4 87.2H693l33.6-87.2H692z"></path></g><path class="bsfill" d="M372.2 368.6c-3 2.4-6.6 3.7-10.4 3.7-5.2 0-8-2.5-8-7.5 0-3.7 2-6 5.4-7 4-1 8.3-1.6 13-2v12.8zm18-64c-5.2-2-11.6-3-19.2-3-15 0-29.3 2.6-43 8l5 21.7c12-3.2 21.5-4.7 28.4-4.7 4.7 0 7.6.8 9 2.6 1 1.4 1.4 3.5 1.4 6.2v3c-15.6.7-26.8 2-33.7 4.3-5.3 1.8-9.4 4.3-12 7.8-2.7 3.4-4 8.3-4 14.7 0 7.4 2.5 14 7.6 19.7 5 5.6 12.3 8.5 21.7 8.5 9.8 0 17.2-3 22.4-9.2l.7 7.4H405v-53.5c0-11-1-18.4-3-22.4-2.7-5.5-6.7-9.2-11.8-11.2zm82.5 61.2c-4.8 1.5-8.8 2.3-12 2.3-4.5 0-7.3-1.3-8.6-4-.8-2.3-1.3-6.8-1.3-13.5v-49l-33 4.2V355c0 9 .2 16.4 1 21.6.6 5.6 3 10 7.5 13 4.3 3 10 4.5 17.2 4.5 11.4 0 21.2-3.6 29.6-11.2v9h32.8v-90.3l-33.2 4.2v60zm111-64.4c-11 0-21.7 3.8-31.7 11.6v-11.5l-32.8 4.2v86h33.2v-62c4.8-1.5 9-2.3 12.7-2.3 4.3 0 7 1.4 8 4.2 1 1.8 1.3 7 1.3 15.3v44.7h33.2v-50.2c0-11.7-.2-19.3-.7-22.8-1.5-11.6-9.2-17.3-23-17.3m-303.5 133s33.2 0 33.2-34.5v-98.5l-33.2 4.2v128.8zM297 295c5 0 9-1.4 11.8-4 3-2.7 4.5-6.7 4.5-12 0-10.4-5.2-15.7-15.7-15.7-4.8 0-8.8 1.4-12 4-3 2.6-4.5 6.6-4.5 12 0 5.3 1.6 9.2 4.6 11.8 3 2.6 6.7 4 11.3 4"></path><path mask="url(#bsd)" fill="#F6CC06" d="M216.6 280.7L51 248.3l-3-.3c-6.6 0-12.5 4.7-14 11.4V434c0 7.7 6.4 14 14.3 14 1 0 2 0 3-.3L216.5 415c4.4-1 7.6-4.8 7.6-9.3V290c0-4.6-3.2-8.4-7.6-9.3"></path><path fill="#2A2A2A" d="M178.5 327.4h-.5l-69.4-7.3c-2.6-.2-4.5-2.5-4.3-5.2.3-2.6 2.6-4.5 5.3-4.2L179 318c2.6 0 4.5 2.5 4.2 5-.2 2.6-2.3 4.4-4.7 4.4m-86.4-9h-.4L79 317c-2.5-.3-4.4-2.6-4-5.3 0-2.6 2.4-4.5 5-4.2l12.6 1.3c2.6.3 4.5 2.6 4.2 5.2-.2 2.5-2.3 4.3-4.7 4.3m58.7 62.5c-2.4 0-4.5-2-4.7-4.3-.3-2.6 1.6-5 4.2-5.2l27.8-3c2.7-.2 5 1.7 5.3 4.3.2 2.6-1.7 5-4.3 5.2l-27.8 3h-.5m-71 7.4c-2.5 0-4.6-1.8-4.8-4.2-.4-2.6 1.5-5 4-5.3l54-5.6c2.7-.2 5 1.7 5.3 4.3.2 2.6-1.7 5-4.3 5.2l-54 5.7h-.4m99-35.6h-73.8c-2.6 0-4.7-2-4.7-4.7s2.2-5 4.8-5h73.7c2.7 0 4.8 2.2 4.8 5s-2 4.6-4.8 4.6"></path><path mask="url(#bsf)" fill="#2A2A2A" d="M210 401.7l-162 32V262.2h.2L210 294v107.7zm6.6-121L51 248.3l-3-.3c-6.6 0-12.5 4.7-14 11.4V434c0 7.7 6.4 14 14.3 14 1 0 2 0 3-.3L216.5 415c4.4-1 7.6-4.8 7.6-9.3V290c0-4.6-3.2-8.4-7.6-9.3z"></path></g></svg>