<?xml version="1.0" encoding="utf-8"?>
<!-- Generator: Adobe Illustrator 20.1.0, SVG Export Plug-In . SVG Version: 6.00 Build 0)  -->
<svg version="1.1" id="Layer_1" xmlns="http://www.w3.org/2000/svg" xmlns:xlink="http://www.w3.org/1999/xlink" x="0px" y="0px"
	 viewBox="0 0 884.7 279.3" style="enable-background:new 0 0 884.7 279.3;" xml:space="preserve">
<style type="text/css">
	.st0{fill:#C4007F;}
	.st1{fill:#1982DE;}
</style>
<g>
	<path class="st0" d="M115.7,145.3c-16.3,0-29.5-13.2-29.5-29.5c0-16.3,13.2-29.5,29.5-29.6c16.3,0,29.5,13.2,29.6,29.6
		C145.3,132,132,145.3,115.7,145.3"/>
	<path class="st1" d="M197.5,33.9c-45.2-45.2-118.4-45.2-163.6,0c-45.2,45.2-45.2,118.4,0,163.6l81.8,81.8l81.8-81.8
		C242.7,152.3,242.7,79.1,197.5,33.9 M51,180.4C15.3,144.7,15.3,86.7,51,51c35.7-35.7,93.6-35.7,129.3,0
		c35.7,35.7,35.7,93.6,0,129.3C144.7,216.1,86.8,216.1,51,180.4"/>
	<g>
		<path class="st1" d="M316.8,197.9V81h24.8v96.4h47.4v20.5H316.8z"/>
		<path class="st1" d="M478.2,165.4c0,10.6-3.8,18.9-11.4,24.9c-7.6,6.1-18.2,9.1-31.7,9.1c-12.5,0-23.5-2.3-33.1-7v-23
			c7.9,3.5,14.6,6,20,7.4c5.5,1.4,10.5,2.2,15,2.2c5.4,0,9.6-1,12.5-3.1c2.9-2.1,4.4-5.2,4.4-9.3c0-2.3-0.6-4.3-1.9-6.1
			c-1.3-1.8-3.2-3.5-5.6-5.2c-2.5-1.7-7.5-4.3-15.1-7.9c-7.1-3.4-12.5-6.6-16.1-9.7c-3.6-3.1-6.4-6.7-8.6-10.8
			c-2.1-4.1-3.2-8.9-3.2-14.4c0-10.3,3.5-18.5,10.5-24.4c7-5.9,16.7-8.9,29.1-8.9c6.1,0,11.9,0.7,17.4,2.2
			c5.5,1.4,11.3,3.5,17.3,6.1l-8,19.3c-6.2-2.6-11.4-4.3-15.5-5.4c-4.1-1-8.1-1.5-12-1.5c-4.7,0-8.3,1.1-10.8,3.3
			c-2.5,2.2-3.8,5-3.8,8.6c0,2.2,0.5,4.1,1.5,5.7c1,1.6,2.6,3.2,4.8,4.7c2.2,1.5,7.4,4.2,15.7,8.2c10.9,5.2,18.4,10.5,22.5,15.7
			C476.2,151.4,478.2,157.8,478.2,165.4z"/>
		<path class="st1" d="M548.9,197.9l-28.1-91.7h-0.7c1,18.7,1.5,31.1,1.5,37.3v54.4h-22.1V81h33.7l27.7,89.4h0.5L590.6,81h33.7
			v116.9h-23.1v-55.3c0-2.6,0-5.6,0.1-9c0.1-3.4,0.4-12.5,1.1-27.2h-0.7l-30.1,91.5H548.9z"/>
		<path class="st1" d="M648.4,186.4c0-4.5,1.2-7.9,3.6-10.2c2.4-2.3,5.9-3.4,10.5-3.4c4.4,0,7.8,1.2,10.3,3.5
			c2.4,2.3,3.6,5.7,3.6,10.1c0,4.2-1.2,7.5-3.7,10c-2.5,2.4-5.9,3.6-10.2,3.6c-4.5,0-7.9-1.2-10.4-3.6
			C649.7,194.1,648.4,190.8,648.4,186.4z"/>
		<path class="st1" d="M700.5,197.9V81h24.8v96.4h47.4v20.5H700.5z"/>
		<path class="st1" d="M859.6,81h25l-39.7,116.9h-27L778.3,81h25l22,69.5c1.2,4.1,2.5,8.9,3.8,14.3c1.3,5.5,2.1,9.3,2.4,11.4
			c0.6-4.9,2.6-13.5,6-25.7L859.6,81z"/>
	</g>
</g>
</svg>
