<svg xmlns="http://www.w3.org/2000/svg" viewBox="0 0 226.56 50"><defs><style>.a{fill:#1b2d87;}.b{fill:#f50;}</style></defs><title>tvnet logo weba galvai</title><polygon class="a" points="50 30 40 10 0 10 0 17.5 12.5 17.5 12.5 40 22.5 40 22.5 17.5 33.75 17.5 45 40 55 40 70 10 60 10 50 30"/><polygon class="a" points="83.75 25 88.73 15.03 86.22 10 76.22 10 81.22 20 70 20 70 30 81.22 30 76.22 40 86.22 40 88.73 34.97 83.75 25"/><polygon class="b" points="226.56 10 191.56 10 191.56 17.5 204.06 17.5 204.06 40 214.06 40 214.06 17.5 226.56 17.5 226.56 10"/><polygon class="b" points="139.06 10 139.06 26.25 124.06 10 114.06 10 114.06 40 124.06 40 124.06 23.75 139.06 40 149.06 40 149.06 10 139.06 10"/><polygon class="b" points="186.56 17.5 186.56 10 154.06 10 154.06 40 186.56 40 186.56 32.5 164.06 32.5 164.06 28.75 175.31 28.75 175.31 21.25 164.06 21.25 164.06 17.5 186.56 17.5"/><polygon class="b" points="109.06 20 97.77 20 102.77 10 92.77 10 85.27 25 92.77 40 102.77 40 97.77 30 109.06 30 109.06 20"/></svg>