<?xml version="1.0" encoding="UTF-8"?>
<!-- My Brand New Logo (1.0.87), id: NggAW7wq2BfAlWJqKnZn (1.0.7), date: 2021-07-28 21:28 -->
<svg version="1.1" preserveAspectRatio="xMidYMid meet" xmlns="http://www.w3.org/2000/svg" xmlns:xlink="http://www.w3.org/1999/xlink" viewBox="41.541 340.233 916.918 319.534" width="1000" height="348">
	<defs>
		<g id="def-1" transform="matrix(7.171, 0, 0, 7.171, 44.674, 343.366)" fill="#fff" stroke="none" stroke-width="1">
			<g transform="translate(-27.147, -28.158)">
				<g></g>
				<path d=" M70.852,35.496 h-3.115 v-1.919 c0 -0.829 -0.672 -1.5 -1.5 -1.5 H63.12 v-1.919 c0 -0.828 -0.672 -1.5 -1.5 -1.5 H29.147 c-0.829,0 -1.5,0.672 -1.5,1.5 v35.068 c0,3.372,2.743,6.115,6.116,6.115 h32.472 c3.372,0,6.116 -2.743,6.116 -6.115 v-28.23 C72.352,36.168,71.68,35.496,70.852,35.496 z M33.764,68.342 c-1.719,0 -3.116 -1.397 -3.116 -3.115 V31.658 H60.12 v33.559 c0,0.004 -0.001,0.007 -0.001,0.01 c0,0.26,0.021,0.514,0.053,0.766 c0.008,0.062,0.02,0.124,0.029,0.187 c0.03,0.195,0.07,0.388,0.119,0.576 c0.015,0.058,0.028,0.116,0.045,0.174 c0.069,0.238,0.148,0.472,0.245,0.696 c0.004,0.01,0.009,0.019,0.014,0.027 c0.092,0.213,0.198,0.417,0.313,0.617 c0.014,0.023,0.023,0.049,0.037,0.072 H33.764 z M69.352,65.227 c0,1.718 -1.397,3.115 -3.116,3.115 c-1.718,0 -3.115 -1.397 -3.115 -3.115 V35.077 h1.616 v1.909 c0,0.004 -0.001,0.006 -0.001,0.01 v28.553 c0,0.828,0.672,1.5,1.5,1.5 s1.5 -0.672,1.5 -1.5 V38.496 h1.616 V65.227 z M55.734,48.748 H35.031 c-0.828,0 -1.5,0.672 -1.5,1.5 s0.672,1.5,1.5,1.5 h20.703 c0.828,0,1.5 -0.672,1.5 -1.5 S56.562,48.748,55.734,48.748 z M55.734,61.311 H35.031 c-0.828,0 -1.5,0.672 -1.5,1.5 s0.672,1.5,1.5,1.5 h20.703 c0.828,0,1.5 -0.672,1.5 -1.5 S56.562,61.311,55.734,61.311 z M55.734,55.029 H35.031 c-0.828,0 -1.5,0.672 -1.5,1.5 s0.672,1.5,1.5,1.5 h20.703 c0.828,0,1.5 -0.672,1.5 -1.5 S56.562,55.029,55.734,55.029 z M55.734,36.186 H35.031 c-0.828,0 -1.5,0.672 -1.5,1.5 s0.672,1.5,1.5,1.5 h20.703 c0.828,0,1.5 -0.672,1.5 -1.5 S56.562,36.186,55.734,36.186 z M55.734,42.467 H35.031 c-0.828,0 -1.5,0.672 -1.5,1.5 s0.672,1.5,1.5,1.5 h20.703 c0.828,0,1.5 -0.672,1.5 -1.5 S56.562,42.467,55.734,42.467 z"></path>
			</g>
		</g>
		<path id="def-2" d="M454.384,430.142 L536.477,430.142 L537.7,443.765 L500.671,528.129 L540.145,528.129 L538.049,545.421 L452.637,545.421 L451.415,531.797 L488.269,447.433 L455.083,447.433 L454.384,430.142 Z M581.541,413.548 Q590.624,413.548,596.213,417.566 Q601.802,421.583,601.802,428.57 L601.802,428.57 Q601.802,435.556,595.951,439.399 Q590.1,443.241,580.668,443.241 L580.668,443.241 Q571.41,443.241,565.646,439.486 Q559.882,435.731,559.882,428.919 L559.882,428.919 Q559.882,421.932,565.996,417.74 Q572.109,413.548,581.541,413.548 L581.541,413.548 Z M601.453,456.341 L601.453,522.016 Q601.453,528.129,602.675,533.369 Q603.898,538.609,606.867,543.674 L606.867,543.674 Q603.723,545.77,598.221,546.906 Q592.72,548.041,588.178,548.041 L588.178,548.041 Q574.38,548.041,566.956,541.753 Q559.533,535.465,559.533,522.54 L559.533,522.54 L559.533,456.341 L601.453,456.341 Z M629.749,545.421 L629.749,545.421 Z M629.749,545.421 L629.749,456.341 L663.285,454.245 L665.031,469.965 Q668.699,460.533,676.035,456.691 Q683.371,452.848,694.724,452.848 L694.724,452.848 Q710.794,452.848,718.479,461.057 Q726.164,469.267,726.164,485.685 L726.164,485.685 L726.164,522.016 Q726.164,528.129,727.387,533.369 Q728.61,538.609,731.579,543.674 L731.579,543.674 Q728.435,545.77,723.02,546.906 Q717.606,548.041,712.89,548.041 L712.89,548.041 Q699.266,548.041,691.755,541.753 Q684.244,535.465,684.244,522.54 L684.244,522.54 L684.244,484.987 Q684.244,484.113,684.244,478.524 Q684.244,472.935,682.673,469.441 Q681.101,465.948,677.782,465.948 L677.782,465.948 Q674.114,465.948,672.891,469.267 Q671.669,472.585,671.669,478.175 L671.669,478.175 L671.669,484.113 L671.669,545.421 L629.749,545.421 Z M676.035,554.504 Q685.991,554.504,690.27,557.91 Q694.55,561.316,694.55,569.176 L694.55,569.176 Q694.55,575.464,690.969,580.791 Q687.388,586.118,681.101,589.262 Q674.813,592.406,667.127,592.406 L667.127,592.406 Q665.905,592.406,659.617,591.882 L659.617,591.882 Q663.459,587.341,665.468,582.974 Q667.477,578.608,667.477,573.542 L667.477,573.542 Q667.477,564.809,663.11,557.298 L663.11,557.298 Q664.507,556.076,668.437,555.29 Q672.367,554.504,676.035,554.504 L676.035,554.504 Z M809.48,537.736 Q806.86,543.849,800.747,546.556 Q794.633,549.264,786.599,549.264 L786.599,549.264 Q770.006,549.264,758.827,542.976 Q747.648,536.688,747.648,522.889 L747.648,522.889 Q747.648,505.597,764.329,500.095 Q781.009,494.593,806.86,494.593 L806.86,494.593 L806.86,479.397 Q806.86,471.887,805.288,467.52 Q803.716,463.153,798.476,463.153 L798.476,463.153 Q791.664,463.153,789.306,467.782 Q786.948,472.411,786.948,480.795 L786.948,480.795 Q786.948,484.113,787.297,490.052 L787.297,490.052 Q785.9,490.751,782.494,491.1 Q779.088,491.449,776.817,491.449 L776.817,491.449 Q767.386,491.449,760.661,487.607 Q753.936,483.764,753.936,475.904 L753.936,475.904 Q753.936,462.455,768.346,457.651 Q782.756,452.848,799.699,452.848 L799.699,452.848 Q822.929,452.848,835.855,459.922 Q848.78,466.996,848.78,485.685 L848.78,485.685 L848.78,522.016 Q848.78,528.129,850.003,533.369 Q851.225,538.609,854.195,543.674 L854.195,543.674 Q851.051,545.77,845.374,546.906 Q839.697,548.041,835.156,548.041 L835.156,548.041 Q815.943,548.041,809.48,537.736 L809.48,537.736 Z M797.777,536.513 Q802.843,536.513,804.851,531.535 Q806.86,526.557,806.86,519.571 L806.86,519.571 L806.86,503.327 Q796.904,503.327,792.712,507.781 Q788.52,512.235,788.52,522.191 L788.52,522.191 Q788.52,528.304,790.703,532.408 Q792.887,536.513,797.777,536.513 L797.777,536.513 Z M916.201,463.153 Q913.057,463.153,911.223,465.424 Q909.389,467.695,909.389,471.013 L909.389,471.013 Q909.389,477.476,914.542,481.843 Q919.694,486.209,930.524,491.973 L930.524,491.973 Q938.733,496.165,943.624,499.397 Q948.514,502.628,951.92,507.344 Q955.326,512.06,955.326,518.173 L955.326,518.173 Q955.326,534.941,942.75,542.102 Q930.174,549.264,909.913,549.264 L909.913,549.264 Q894.717,549.264,882.578,544.81 Q870.438,540.356,870.438,529.876 L870.438,529.876 Q870.438,522.016,877.163,518.173 Q883.888,514.331,893.145,514.331 L893.145,514.331 Q895.59,514.331,898.996,514.68 Q902.402,515.029,903.8,515.728 L903.8,515.728 Q903.45,521.667,903.45,524.985 L903.45,524.985 Q903.45,531.972,904.673,535.465 Q905.896,538.958,910.612,538.958 L910.612,538.958 Q914.28,538.958,916.463,536.076 Q918.646,533.194,918.646,529.177 L918.646,529.177 Q918.646,522.54,913.319,518.173 Q907.992,513.807,897.337,508.392 L897.337,508.392 Q889.128,504.2,884.237,500.969 Q879.346,497.737,875.94,493.021 Q872.534,488.305,872.534,482.192 L872.534,482.192 Q872.534,466.472,885.023,459.66 Q897.512,452.848,916.725,452.848 L916.725,452.848 Q930.349,452.848,942.838,456.516 Q955.326,460.184,955.326,468.917 L955.326,468.917 Q955.326,475.729,948.165,479.747 Q941.004,483.764,932.62,483.764 L932.62,483.764 Q924.41,483.764,922.14,482.541 L922.14,482.541 L922.489,473.284 Q922.489,468.917,921.004,466.035 Q919.52,463.153,916.201,463.153 L916.201,463.153 Z"></path>
		<mask id="mask-1" x="29.01" y="327.702" width="960.46" height="344.595" maskUnits="userSpaceOnUse" stroke-width="0">
			<rect x="44.674" y="343.366" width="929.134" height="313.268" fill="#000"></rect>
			<use xlink:href="#def-1" fill="#fff" stroke="#fff"></use>
			<use xlink:href="#def-2" fill="#fff" stroke="#fff"></use>
		</mask>
	</defs>
	<g mask="url(#mask-1)">
		<rect x="44.674" y="343.366" width="929.134" height="313.268" fill="#000"></rect>
	</g>
</svg>
